<?xml version="1.0" encoding="utf-8"?>

<!DOCTYPE svg PUBLIC "-//W3C//DTD SVG 1.1//EN" "http://www.w3.org/Graphics/SVG/1.1/DTD/svg11.dtd">
<svg version="1.1" id="Layer_1" xmlns="http://www.w3.org/2000/svg" xmlns:xlink="http://www.w3.org/1999/xlink" x="0px" y="0px"
	 viewBox="352.9106 -5.6483 1265.0895 1959.0559" enable-background="new 352.9106 -5.6483 1265.0895 1959.0559"
	 xml:space="preserve">
<path fill="#181818" enable-background="new    " d="M1403.39,320.03c0.8099-0.3301,1.64-0.66,2.48-0.99
	c-1.3099-4.3701-1.6899-9-3.54-13.2001C1401.41,310.59,1402.75,315.33,1403.39,320.03z"/>
<path fill="#181818" enable-background="new    " d="M1580.36,1765.1c-2.34-15.0399-6.95-30.09-15.85-42.61
	c-4.49-6.4-9.0601-12.89-15.09-17.9299c-3.3501-4.4901-6.02-9.4301-8.67-14.3401c-1.63-2.59-0.95-6.4-3.76-8.1799
	c-2.73-2.1001-5.1799-4.52-7.78-6.74c-1.62-2.26-3.37-4.4-5.1599-6.49c-0.65-2.9801-4.1001-3.4701-6.27-1.77
	c-2.12-0.11-3-2.1901-4.11-3.63c-2.42-3.61-4.9601-7.12-7.38-10.7101c-22.23-33.0199-37.24-70.09-56.11-104.99
	c-9.29-16.38-14.4-34.76-23.92-51.0299c-9.48-16.5-21.2-31.78-35.04-44.8401c-14.2-13.6699-30.9199-24.2999-47.85-34.22
	c-9.72-5.09-18.39-11.91-28-17.17c-7.8099-3.9399-14.66-10.6799-16.8199-19.36c-1.8101-6.0499,0.01-12.27,0.51-18.35l0.1599,0.97
	c0.79-3.2999,0.74-6.7,0.61-10.0499c1.53-11.8101,7-22.5801,11.3201-33.54c9.4399-21.4399,18.84-42.91,27.26-64.77
	c4.9099-14.1899,9.86-28.5599,11.4299-43.5599c1.8101,0.24,2.01-2.92,0.78-3.74l0.1901-1.3301c2.0499-0.01,2.08-3.59,0.7599-4.64
	c0.0701-0.58,0.2001-1.74,0.27-2.3199c1.99-0.0601,2-3.59,0.75-4.66c0.0701-0.5699,0.2101-1.72,0.28-2.2899
	c1.97-0.16,1.92-3.66,0.66-4.7401c0.1-0.6699,0.3099-2.0199,0.4199-2.6899c1.0801-2.89,1.0601-6,0.8-9.01
	c0.03-0.29,0.08-0.87,0.11-1.16c0.85-2.99,1.1-6.09,1.13-9.1699c0.14-10.51,1.85-20.9501,1.96-31.4501c0-0.46,0-1.4,0.01-1.87
	c1.9301-0.15,1.8101-3.59,0.62-4.64c0.89-2.63,1.14-5.3999,1.54-8.11c2.46-0.6699,4.9-1.39,7.37-2.0699
	c3.7-0.1,7.41-0.1,11.13-0.0801l0.71,0.13c0.28,2.03,4.92,1.92,5.3401-0.01l1.5199-0.35c1.7001,1.03,5.63,1.5,6.4701-0.6l0.96,0.04
	c4.5,1.1,9.1801,0.98,13.79,0.83c1.6599,0.25,3.3199,0.52,5.01,0.84c0.35-0.5,1.0499-1.5,1.3999-2
	c4.76-0.95,9.6101-0.8099,14.4501-0.8199c0.0499,1.9399,3.53,1.92,4.66,0.75l1.3099,0.1801c-0.3099,1.85,2.87,2.1599,3.6801,0.7799
	c0.8999,0.27,2.6899,0.8,3.59,1.0601c-0.16-0.5801-0.47-1.74-0.63-2.3301c-0.2-3.3099-0.71-6.62-2.09-9.6499
	c-0.55-2.9801-1.2001-5.9401-2.15-8.8c1.26-1.12,1.16-4.61-0.85-4.59l-0.1801-1.37c1.37-1.0801,1.2001-4.63-0.85-4.5801
	l-0.1901-1.4099c1.3601-1.0901,1.28-4.64-0.7699-4.67l-0.2001-1.35c1.17-1.17,1.1801-4.63-0.75-4.8101
	c0.01-2.77-0.2-5.58-1.1699-8.1699c1.08-1.16,1.1499-4.52-0.7301-4.67c-0.08-0.84-0.24-2.54-0.3199-3.39
	c1.02-1.4399,1.36-5.08-0.66-5.5499c-0.02-0.7201-0.0499-2.14-0.0699-2.8501c0.3199-4.6799-0.5701-9.3199-0.8101-13.97
	c-0.33-5.16,0.26-10.35-0.5-15.47c-0.7-4.17-0.26-8.53-1.74-12.54c-0.6699-3.9-1.39-7.79-2.22-11.65
	c1.1899-1.41,1.3099-5.14-0.8199-5.49c-0.02-0.41-0.0601-1.22-0.0801-1.6201c0.2001-3.8,0.49-7.73-0.6799-11.4
	c-0.1001-0.35-0.3-1.05-0.41-1.41c1.2-1.11,1.21-4.59-0.78-4.58c-2.29-18.17-12.0699-34.15-19.54-50.55
	c-4.4399-9.1201-9.49-17.9301-14.47-26.76c-5.39-9.63-12.4299-18.37-16.1-28.9c0.97-0.69,1.95-1.37,2.9399-2.05
	c-2.7-6.43-4.0499-13.3-6.6-19.76c-1.4-6.12-0.8199-12.49-2.2-18.57c-0.11-2.16-0.33-4.34,0.24-6.44c0.47-1.03,1.16-2.01,1.24-3.17
	c0.42-5.19,0.86-10.4,0.49-15.59c0.62-2.65,1.84-5.18,1.9401-7.92c2.09-0.88,1.84-4.64,0.9399-6.45l0.45-1.13l-0.21-1.34
	c1.9501-0.57,1.64-4.12,0.66-5.56c1.6899-8.67,2.61-17.5,4.49-26.13c6.08-23.96,14.08-47.36,21.02-71.0701
	c6.9199-21.8799,11.26-44.51,14.6899-67.1499c1.8201,0.1899,2.0701-2.96,0.74-3.76l0.1801-1.3301c2.0699,0.03,2.17-3.58,0.8-4.6299
	l0.2-1.3401c2.0699-0.02,2.16-3.5701,0.79-4.6399c0.09-0.4302,0.25-1.3,0.33-1.7301c1.2-2.84,1.15-5.96,0.85-8.96
	c0.03-0.2401,0.09-0.7101,0.12-0.9501c1.42-3.1099,0.97-6.6,1.4401-9.8899c1.7999-16.0801,2.8099-32.3201,1.6699-48.49
	c-0.1-2.51,0.38-5.1602-0.7799-7.49c-0.0701-0.5801-0.2001-1.7301-0.26-2.3101c0.1-6.25-0.5801-12.5901-2.05-18.67
	c-1.21-8.4501-2.63-16.9301-5.36-25.0499c-3.22-9.3601-6.54-18.8201-12.01-27.1501c-2.34-3.2599-3.08-7.3899-5.8101-10.3899
	c-2.1399-2.8301-3.71-6.04-5.96-8.77c-1.6899-0.47-3.13,1.13-4.6,1.7c-4.5699-5.48-9-11.08-13.36-16.72
	c-4.77-6.23-10.11-12.04-14.28-18.71c-2.97-5.3-5.1799-10.97-7.7-16.49c1.33-1.97,1.89-4.24,1.87-6.6001l-0.92,0.24
	c0.11-2.6799-0.22-5.3398-0.51-7.99c1.7001-2.3599,3.3301-4.77,4.85-7.26c1.89-2.9399,4.16-5.73,5.39-9.0399
	c4-8.41,8.3401-16.7001,11.4401-25.5c1.4199-4.6801,2.2-9.52,3.2899-14.28l0.2301,0.2101
	c-0.8101-4.1501-0.9601-8.3901-0.4701-12.5801c0.74-1.6899,1.4-3.4199,2.05-5.1499l0.9299,0.0099c2.9-0.71,5.8-1.64,8.3-3.37
	c4.4-1.08,8.76-3.21,11.71-6.75c0.6001-0.1899,1.8201-0.5699,2.42-0.76c0.67,3.65,1.25,7.3201,1.37,11.04
	c-0.52,8.1,4.37,14.84,9,20.95c0.3-1.3199,0.8201-2.61,0.9-3.98c-0.71-1.55-1.71-2.9399-2.33-4.51
	c-0.1201-2.7,0.46-5.37,0.7799-8.04c0.4501,0.3801,1.36,1.1401,1.8201,1.52c0.98,2.6801,2.5599,5.22,5.3099,6.3801
	c-1.5,7.8499-4.9199,15.6599-3.3199,23.7899c0.88,3.27,0.8099,7.2999,3.64,9.64c-0.9701-4.35-3.1901-8.46-3.0801-13
	c0.0901-5.6,1.65-11.04,3.05-16.4299c0.9399-3.74,3.4399-7.1501,3.38-11.0901c0.2999-0.5701,0.91-1.73,1.21-2.3101
	c0.48,0.1501,1.4401,0.4401,1.92,0.5801c-1.3301-4.13-3.52-8.8101-1.6901-13.0901c1.1901,5.5,3.65,10.5701,6.4801,15.4102
	c-0.65-7.6201-2.4-15.1101-2.9301-22.75c-0.46,0.33-1.36,1-1.8101,1.33c0.39-0.67,0.8-1.33,1.2201-1.9901
	c-0.13-0.8699-0.41-2.5999-0.54-3.47c0.02-0.97,0.08-2.9099,0.1-3.8799c1.38,1.5999,2.76,3.22,4.17,4.8199
	c-2.09-8.38-3.75-16.86-5.77-25.25c-1.5699-7.33-4.24-14.49-8.17-20.88c-2.2799-4.5-5.45-8.6699-8.72-12.45
	c-3.54-4.5901-6.76-9.53-10.95-13.55c-1.5801-2.3-3.26-4.62-5.65-6.11c-0.86-0.76-1.75-2.39-3.11-1.62
	c-0.59-1.55-4.63-1.5801-5.35-0.1899c-1,0.5399-1.9701,1.0898-2.9301,1.6499c-2.92-3.76-6.78-7.71-11.58-8.5601
	c-0.38-1.6699-1.3101-1.98-2.77-0.9199l-0.86-0.49c-9.78-1.28-18.03,7.6-19.02,16.79c-1.1901-0.5-2.22-0.25-3.08,0.74
	c-2.53-3.21-5.7201-5.8301-8.54-8.77c-2.4401-6.49-9.5801-8.8301-15.1901-11.8101c-8.49-3.0699-17.46-4.6899-26.4399-5.46
	c-4.09,0.0601-8.1801-0.27-12.25,0.1699c-3.08-0.0599-6.21-0.0299-9.13,1.01l-1.3-0.0999
	c-11.8199,1.9099-23.1899,5.8199-34.13,10.5999c-8.9299,4.29-17.8199,8.9001-25.5399,15.17c-6.3501,3.9301-11.98,9.27-16.3301,15.36
	l-0.13,0.04c-1.1899,2.3101-2.34,4.64-3.3199,7.03l-0.41-0.02c-0.0399,2.79-0.16,5.64,0.64,8.36c-0.4299,0.5499-0.79,1.14-1.12,1.73
	c-2.42,0.3-4.67,1.2301-6.09,3.25l-0.3,1.34c-0.38,0.25-1.13,0.77-1.51,1.03c-0.37-3.5601,2.3201-5.59,5.12-7.0601
	c-3.95,0.6101-9.6699,0.3901-11.8099,4.25c-1.37,1.1702-1.73,2.9401-1.17,4.6101c1.26,5.49,1.52,11.21,3.4401,16.55
	c1.2,3.0599,0.6499,6.3799,0.48,9.5699c-0.05,0.2699-0.14,0.8199-0.1901,1.1c-1.2899,3.0601-0.95,6.47-1.46,9.7
	c-0.48,6.8501-0.96,14,1.35,20.6001c0.5801,2.73,1.5601,5.35,2.35,8.03c0.24,3.6199,0.3101,7.26,0.0901,10.8999
	c-2.5901,6.6801-5.74,13.13-9.3,19.3501c-1.9,3.8499-4.9301,7.26-5.85,11.51c-1.9501-0.01-1.92,4.3699,0.04,4.3699
	c1.7799,6.65,10.36,5.1201,14.2699,9.3501c-0.97,1.35-0.87,3.49,0.1001,4.83l-0.6801,1.21l0.17,1.08
	c-1.7001-0.1799-1.67,3.78,0.01,3.6001l-0.1901,1.1399c1.91,2.28,4.22,4.1702,6.78,5.7001c-2.13,2.99-2.24,6.9401-0.1901,10
	c1.8,3.0499,6.4401,3.6801,7.25,7.4601c0.62,4.2899,0.4401,8.8199,2.37,12.8199c2.04,4.97,6.77,9.2,12.3601,9.1801
	c0.4099,1.9099,4.9399,1.8999,5.36-0.05c4.6699-0.1899,9.24-1.3301,13.7999-2.3401c2.75-0.0399,5.55-0.4199,8.01-1.77
	c2.53-0.45,5.1-0.73,7.6-1.4299c1.5701,1.23,4.25,1.16,5.88-0.02c6.65,2.05,12.6001,6.45,16.7001,12.0601
	c5.33,8.3899,8.0599,18.0699,10.88,27.51c-1.25,1.28-1.29,2.6-0.11,3.95c-1.0801,2.02-1.39,4.3101-1.7201,6.55
	c-2.1599,3.08-6.6,3.4299-8.11,7.04c-1.4,2.8099-4.03,4.76-5.3099,7.6199c-1.73-0.3199-2.37,0.3701-1.9401,2.0701
	c-4.11,3.6899-6.98,8.6799-9.6,13.52c-4.9301,11.23-9.1,22.9299-15.92,33.21c-3.35,5.15-6.0599,11-10.98,14.87
	c-2.7999,2.2201-2.9199,6.2101-5.35,8.7401c-4.0699,4.8298-7.41,10.3099-11.92,14.74c-3.76,2.5798-4.98,7.1599-7.59,10.6699
	c-6.13,8.97-11.53,18.4399-15.47,28.5801c-4.74,9.5699-8.48,19.6599-10.4501,30.1699c-0.9199,1.98-1.1,4.1599-1.1899,6.3201
	c-0.17,3.71-1.08,7.51,0.13,11.1499c0.11,0.71,0.34,2.15,0.46,2.8701c-1.27,1.3999-1.33,5.1399,0.78,5.5898
	c0.05,1.76,0.42,3.48,0.75,5.2201c-9.72,16.09-18.38,33.0399-30.76,47.34c-6.95,8.15-16.86,12.65-25.75,18.25
	c-15.5699,9.09-30.54,19.21-44.87,30.13c-13.37,9.8-24.91,21.81-37.95,32.03c-16.2401,13.56-32.7201,26.97-50.64,38.29
	c-1.0801,1-2.46,0.5-3.72,0.34c-1.48-1.25-3.47-0.9301-5.24-0.83c-3.9301,0.39-8.03,0.68-11.52,2.72
	c-6.26,1.51-12.22,3.97-18.3201,5.99c-6.9399,2.2401-14.4199-0.23-21.33,2.07c-4.6,1.42-9.2301,2.74-14.02,3.28
	c-7.42,0.92-14.25,4.3-20.38,8.44c-4.5901-7.69-10.28-14.62-16.0801-21.41c-13.4399-17.2599-26.8099-34.82-36.49-54.52
	c-5.73-11.28-10.99-22.81-17.0999-33.89c-11.1301-19.38-20.1602-40.12-34.1001-57.76c-9.85-12.8199-21.59-24.25-29.61-38.41
	c-4.41-7.9299-8-16.29-12.58-24.1299c1.84-1.3,3.78-2.4701,5.48-3.9601c2.27-5.33-3.38-9.0599-4.24-13.9401
	c-1.01-4.5599-3.3-8.77-6.65-12.02c-2.53-2.4199-3.86-5.6899-5.0599-8.8899c-1.52-4.3201-4.9701-7.5901-6.51-11.91
	c-1.53-4.1801-4.3801-7.88-8.42-9.87c-0.38-0.52-1.13-1.5801-1.51-2.1c-0.2999-3.2101-0.24-6.5499-1.59-9.53
	c-1.01-3.33-2.23-6.63-4.1901-9.51c-2.2999-3.2799-2.64-7.37-4.0699-11.0099c-1.3301-3.7101-3.45-7.0701-4.8601-10.7401
	c-0.4099-3.35-0.98-6.6801-1.9099-9.91c-2.5701-15.61-9.0901-30.27-14.72-44.99c-4.73-11.5699-8.4301-23.5699-13.8-34.87
	c-2.35-5.97-5.09-11.85-8.9099-17.0199c0.6699-0.2301,2.0199-0.6801,2.7-0.9102c2.5699,1.25,3.01-2.49,3.6-4.1899
	c1.13-1.23,1.2001-2.8899,1.16-4.45c-0.16-8.3201,0.11-16.64-0.1001-24.96c-0.09-3.67-1.58-7.3-0.6699-10.9701
	c0.27-2.1801,1.61-4.66-0.03-6.59c-6.74-10.63-17.52-17.54-27.2-25.2c-6.3601-5.26-12.5901-10.66-18.58-16.3301
	c2.67-1.8,5.33-3.77,7.06-6.5601c1.85-2.9199,4.78-5.7699,8.4299-5.7999c8.98,1.5599,16.77,7.2001,25.8601,8.33l-0.0601,0.51
	c4.5901,0.51,9.4299,1.3301,13.88-0.4099c5.74-2.01,10.1-7.42,11.14-13.3501c1.86,0.3,2.22-2.9199,0.78-3.6699
	c0.74-2.38,0.7-5.13,2.4099-7.1001c1.8601-2.5199,4.8-3.8099,7.0901-5.8499c1.6399-1.9401,1.3799-4.6501,1.08-6.9801
	c0.39-0.09,1.1801-0.2599,1.5699-0.35l-0.1499-0.8c2.45,0.16,4.29-1.7899,5.6599-3.5599c3.24-3.5599,0.3101-9.02,3.48-12.6901
	c1.51,0.1801,3.05,0.3,4.5901,0.3401c-0.01,1.8899,4.36,1.8999,4.47,0.0599c4.3101,0.16,8.52-2.34,10.48-6.1899l-0.1499-1.11
	c1.72-0.2,1.76-4.4401-0.02-4.5601c-0.3101-4.5-1.8301-8.85-2.53-13.3101c1.36-1.0299,1.34-4.5798-0.6899-4.5999l-0.0601-0.75
	c0.02-3.4401-0.55-6.8701-1.8201-10.0701c-0.3099-1.8-0.77-3.55-1.2-5.3101c-0.13-0.8999-0.39-2.6899-0.51-3.58
	c1.38-0.59,2.8-1.1801,4.21-1.76c-1.48-0.89-2.8199-1.99-3.99-3.24c4.48-2.01,7.3401-6.1,10.54-9.64
	c2.63-3,4.4299-6.74,5.05-10.6899c1.26-4.8601,1.0599-9.96,0.6199-14.91c0.03-0.4301,0.0901-1.2899,0.1201-1.72
	c2.22-0.7301,1.98-4.7401,0.76-6.4c0.3199-1.5701,0.5699-3.1599,0.6099-4.76l1.1901,0.05c0.0599-0.75,0.1901-2.25,0.25-3
	c0.67-0.02,2.01-0.0601,2.6801-0.0801c-0.75-5.53-0.26-11.11-0.77-16.6499l-0.8101,1.03L738.05,138
	c-0.1801-0.6799-0.54-2.04-0.72-2.72c0.2-0.78,0.5999-2.3501,0.7999-3.14c0.8199,0.2999,1.65,0.6,2.5,0.91
	c-0.4701-3.41-1.27-7,0.2999-10.24c-0.7799-0.73-1.5399-1.4601-2.2999-2.1901c-5.2999-7.8199-8.7201-16.9-15.1901-23.9
	c0.8701-0.01,1.74-0.03,2.6301-0.04c-1.4001-2.1899-2.0801-5.2-4.5-6.49c-1.2101-1.6699-2.4601-3.2999-3.75-4.8999
	c-0.4001,0.0499-1.2101,0.1299-1.6101,0.1699c-1.53-2.71-3.55-5.1899-6.5-6.3999c-3.3-2.1101-6.8899-3.74-10.5-5.23l-0.1-0.1901
	c-0.0499-0.01-0.17-0.04-0.22-0.05c-3.7201-3.47-8.13-6.9-13.35-7.5099l-0.28-0.3101c-3.4399-1.13-6.78-2.6001-10.27-3.5901
	c-4.3301-6.0699-12.3101-8.2-19.4199-8.1299c-2.5601-1.02-5.2001-1.8101-7.8701-2.46l0.16-0.1201
	c-1.65-0.33-3.2899-0.6899-4.9301-0.95c-3.5999-0.3-7.21-0.21-10.8099-0.4c-4.76-2.1-10.02-0.85-14.94-2.15
	c-5.32-1.33-10.89-0.59-16.27-0.08c-4.21,0.6901-9.4,1.39-11.68,5.51c-1.22,0.47-2.45,0.9301-3.67,1.38
	c0.53,0.1499,1.59,0.45,2.12,0.6l0.4,0.39c-0.61,0.01-1.83,0.04-2.44,0.05c0.01-0.1602,0.03-0.4701,0.05-0.6301
	c-5.52,1.5701-10.53,4.6401-15.71,7.0801l0.72,1.77l0.1,0.0699c-0.45-0.26-1.36-0.7799-1.82-1.0299
	c-2.08,4.0299-6.16,6.48-9.52,9.3398c-7.02,4.8301-13.2,10.8101-18.56,17.4102c-2.39,2.7599-5.25,5.1099-7.32,8.1399
	c-1.72,1.88-3.36,3.8501-4.6,6.0801c-0.58,0.8599-0.5,1.71,0.25,2.58c-0.11,0.1901-0.33,0.58-0.44,0.77
	c-1.77,1.17-3.43,3.73-1.46,5.58l0.05,0.29l-0.87,0.1799l-0.39,0.98l0.5,0.76c-0.74,0.54-1.18,1.27-1.31,2.2101
	c-4.22,6.38-5.71,14.0699-6.39,21.5699c-0.06,1.66-0.86,3.72,0.72,4.9399c-0.75,8.04-3.21,15.8701-3.09,23.99
	c0.64,1.3,1.88,2.4901,1.73,4.0601c-0.3,6.1001-1.09,12.2-2.76,18.0901c0.78,0.8999,1.28,1.9399,1.5,3.1299
	c0.01,1.5701,0.04,3.1301,0.05,4.7001c0.02,2.0699,0.13,4.14,0.29,6.21c0.42-0.73,1.27-2.1801,1.69-2.9l0.45,1.79
	c-1.17,1.3201-1.15,2.64,0.06,3.96l-0.38,0.71l0.03,0.4701c-1.84,4.4-3.78,10.98,0.25,14.6801c-0.29,0.95-0.86,2.83-1.15,3.78
	c1.24-0.7201,2.48-1.4302,3.73-2.1401c-0.7,1.9-1.41,3.8-1.98,5.75c1.65-1.3999,2.92-3.1699,3.94-5.0699
	c0.6-0.78,1.17-1.58,1.73-2.38c-1.08,4.3401-2.83,8.47-4.69,12.53c-8.04-5.8201-15.84-13.38-26.16-14.53
	c-3.25,0.99-7.1,2.47-8.26,5.99c-3.43,6.49-5.44,13.52-7.41,20.54c-2.79,6.97-4.9,14.3899-9.52,20.4299
	c-1.28,1.8201-2.9,3.8601-2.37,6.24c0.87,1.8501,2.44,3.41,4.38,4.1201c0.34,0.3599,1.01,1.0699,1.35,1.4299
	c-1.1,1.28-2.16,2.59-3.14,3.96c-4.5,4.3201-8.35,9.29-12.8,13.66c-4.89,5.5-8.98,11.66-13.55,17.42
	c-9.38,13.6299-17.34,28.1499-25.54,42.51c-6.17,9.73-10.86,20.3099-14.92,31.0699c-2.05,5.2001-6.71,9.41-6.98,15.24
	c-2.18,0.8099-1.72,4.6801-0.8,6.4601c-0.1,0.47-0.3,1.3999-0.4,1.8599c-1.03,4.1501-0.97,8.4501-0.8101,12.6901
	c0,0.49-0.0099,1.49-0.02,1.98c-2.06,0.4-1.84,4.04-0.79,5.4601l-0.21,0.7c-1.3,3.1799-1.09,6.6799-0.89,10.04
	c-0.05,0.5399-0.14,1.6099-0.19,2.1499c-1.21,2.8401-0.98,5.98-0.76,8.99c-0.02,0.42-0.07,1.26-0.09,1.6801
	c-2.15,0.37-1.99,4.0699-0.81,5.49l-0.21,0.83c-1.3,2.9301-1.2,6.17-1.13,9.3101c0.13,5.03-0.44,10.03-0.7,15.05
	c-0.44,5.99-0.2,12.01-0.92,17.98c-0.59,4.46-0.45,9.01,0.73,13.37c0.03,0.2899,0.09,0.88,0.12,1.17c-0.3,3.02-0.3,6.1299,0.86,8.99
	c0.08,0.3799,0.24,1.1399,0.32,1.52c-1.39,1.0299-1.3101,4.6199,0.79,4.5499l0.22,1.4401c-1.38,1.0499-1.3,4.6499,0.78,4.6399
	l0.2,1.41c-1.17,1.39-1.42,5.2001,0.69,5.61c0.07,0.6001,0.21,1.8101,0.28,2.41c-1.19,1.4-1.33,5.15,0.8,5.5499l0.2,1.4301
	c-1.16,1.4-1.34,5.14,0.76,5.5699c-0.04,7.29,2.62,14.2101,3.72,21.3501c1.78,12.21,5.47,24.03,8.21,36.03
	c1.32,7.0499,3.09,14,4.42,21.0499c-1.43,1.04-1.3199,4.61,0.77,4.62l0.2,1.29c-1.32,0.84-1.12,4,0.73,3.85
	c1.04,9.12,3.3,18.0699,5.53,26.9701c3.07,17.46,8.71,34.3099,14.18,51.1299c3.19,8.47,6.79,16.8,9.59,25.41
	c1.31,8.02,0.92,16.22,0.47,24.31c-1.01,3.17-1.45,6.48-1.85,9.78c-1.08,3.36-2.16,6.73-3.02,10.16c-1.51,3.01-1.85,6.39-1.92,9.72
	c-1.42,8.92-3.6201,17.73-6.59,26.27c-5.68,11.73-11.41,23.44-17.33,35.05c-1.67,3.31-1.94,7.05-2.16,10.69
	c-1.02,4.82-3.2,9.43-3.04,14.46l-0.6-0.08c-0.26,2.88-0.44,5.79-0.32,8.7c-0.01,0.47-0.04,1.39-0.05,1.86
	c-2.01,0.89-1.73,4.76-0.7,6.52l-0.24,1.59c-2.23,0.7-1.83,4.63-0.75,6.33c-1.12,4.53-2.83,8.9-3.93,13.44l0.17,0.26
	c-0.84,3.41-3.79,7.53-1.58,10.82c-0.65,1.98,3.69,3.05,3.8,0.91c2.46-0.88,4.03-3.14,5.8-4.93c-0.27,1.14-0.56,2.27-0.69,3.46
	c-0.63,3.48-1.69,7.31-0.37,10.72c1.44,0.91,3.16,0.5,4.74,0.3c0.78-1.33,1.46-2.7,2.22-4.02c-0.24,1.59,0.08,4.19,1.6,4.96
	l0.25,1.42c-1.21,1.1-1.22,4.64,0.77,4.69c0.9399,10.74,4.5,21.07,7.56,31.36c4.45,12.52,7.17,25.54,10.71,38.33
	c2.47,9.3201,8.88,16.91,15.95,23.1801c-0.5,1.6899,0.12,2.41,1.86,2.17c1.33,2.4299,3.45,4.6499,5.93,5.9399
	c-0.3,1.6899,0.4,2.3199,2.09,1.91c1.09,1.86,2.99,3.0699,4.49,4.62c2.64,2.28,3.54,5.78,5.23,8.72c1.21,2.36,3.09,4.27,4.62,6.42
	c1.91,4.45,1.28,9.3999,1.6201,14.11c-0.38,3.26-0.57,6.71,0.91,9.77c1.5,7.6699,6.5,14.0399,10.92,20.2899
	c0.14,4.98-0.2,10.04,0.75,14.9501c0.85,2.52,1.74,5.02,2.58,7.5499c-1.18,1.0801-1.24,4.52,0.71,4.64
	c0.07,6.36,3.63,11.97,5.42,17.9501c0.76,4.59-0.09,9.37,1.46,13.85c1.28,5.34,3.5699,10.4099,6.3199,15.1699
	c1.13,2.25,2.77,4.4501,2.7401,7.0901c-0.65,3.6499-0.15,7.37-0.11,11.0599c0.08,2.5801-0.05,5.29,1.16,7.6801
	c2.32,9.03,4.4,18.13,7.16,27.0399c-0.26,7.3301-0.25,14.66-0.04,21.9901c-0.03,0.4399-0.08,1.3099-0.11,1.75
	c-2.06-0.03-1.94,3.5299-0.59,4.5399c-0.82,2.9-1.35,5.88-1.49,8.9l-1.02,0.09c0.57,4.77-1.04,9.9501,0.93,14.4701
	c0.17,9.6899,0.34,19.8199,4.57,28.7599c-1.36,3.14-3.61,6.39-2.25,9.9601c1.89,5.1-2.86,9.24-3.24,14.1599
	c-1.92,0.8401-2,5.64-0.02,6.4901c1.81,10.62-4.22,20.08-7.39,29.7699c-1.71,5.5-4.34,10.91-4.45,16.77
	c-1.83-0.22-2.11,2.89-0.77,3.73l-0.18,1.3101c-1.85-0.24-2.21,2.89-0.81,3.71c-4.37,15.38-9.56,30.62-11.39,46.5801
	c-1.1,3.5599-1.09,7.33-0.76,11.0199c-0.04,0.5701-0.11,1.7101-0.15,2.28l-0.57-0.0399c-0.33,3.5699-0.61,7.1599-0.34,10.7599
	c-0.02,0.26-0.07,0.8-0.09,1.0701c-1.15,3.8199-1.16,7.86-0.91,11.83l-0.02,0.1901c-1.53,1.33-1.24,3.4199-1.31,5.26
	c0.06,4.36,0.02,8.73,0.05,13.11c-0.05,1.5599,0.28,3.15,1.22,4.47c0.02,0.25,0.07,0.73,0.09,0.97c-0.24,3.61-0.34,7.35,0.87,10.85
	c0.02,0.27,0.07,0.8101,0.1,1.0901c-0.24,3.58,0.02,7.1699,0.34,10.76l0.57-0.03c0.03,0.58,0.09,1.74,0.12,2.3199
	c-0.23,4.89-0.46,9.91,0.85,14.6901l0.05,0.39c-0.06,3.6799-0.29,7.47,0.8701,11.0399c0.05,0.5,0.14,1.5,0.19,2
	c-0.2,2.9801-0.39,6.11,0.9,8.92c0.41,3.09,1.39,6.0699,2.03,9.13c-0.48,5.77,1.0099,11.46,0.93,17.24
	c0.14,4.1901-1.07,8.29-0.95,12.5c-1.21,7.05-3.92,13.8101-4.92,20.88c-2.06,0.48-1.82,4.24-0.7,5.72c-0.08,0.85-0.23,2.55-0.31,3.4
	c-2.15,0.28-2.02,4.0699-0.76,5.4401l-0.19,1.3999c-1.85-0.22-2.15,2.9-0.79,3.76c-1.3,2.78-0.03,5.8101,0.68,8.6
	c0.56,3.88,0.76,7.87,2.07,11.62l0.04,0.3c-0.05,3.35,0.01,6.71,0.11,10.08c-0.04,0.41-0.11,1.2301-0.14,1.64
	c-1.9901,0.0601-2,3.51-0.8101,4.6801l-0.23,0.7999c-1.23,3.4401-1.4,7.16-0.85,10.77c-0.15,1.7201-0.23,3.4501-0.23,5.2201
	c-1.44,4.73-0.89,9.86-0.77,14.7599l-0.07,0.8601c-2.05-0.05-2.17,3.45-0.85,4.5599l-0.17,0.66c-1.66,3.71-1.89,7.83-2.12,11.84
	c-1.35,4.15-0.84,8.37-0.06,12.5601c-1.36,7.5399-3.46,15.0299-3.11,22.7899c-1.04,6.4701-0.96,13.1001-0.7,19.65
	c-0.15,3.55-0.88,7.34,0.69,10.72c3.4,7.67,5.34,16.2301,11.22,22.54c0.23,7.1801-0.84,14.47,0.84,21.55
	c0.44,4.3999-0.29,9.2,1.72,13.2899c3.91,5.42,10.27,8.28,16.2599,10.8301c6.56,2.45,13.31,4.97,20.33,5.5699
	c-0.27,1.8201,2.91,2.03,3.72,0.74l1.33,0.15c-0.02,2.02,3.5,2.15,4.62,0.89c0.58,0.0699,1.73,0.2,2.3,0.27
	c0.5,2.0399,4.24,1.76,5.7,0.6699c0.4,0.0801,1.2,0.2301,1.6,0.3101c2.83,1.09,5.9,1.1899,8.9,0.91c1.62,0.24,3.25,0.47,4.89,0.74
	c6.71-8.55,16.37-14.2101,26.66-17.3501c6.91,0.6101,13.41,3.67,20.27,4.76l0.27,0.2301c9.71,2.7599,19.6499,4.7,29.63,6.25
	c9.5299,1.4199,19.0699,3.0599,28.71,3.5499l-0.0299,0.85c5.5499-0.14,11.1299,0.27,16.6699-0.2999l-1.04-0.4401
	c0.79-0.0699,2.3601-0.21,3.14-0.2799c3.04,0.23,6.12,0.11,9.0599-0.76l-0.8599,0.0199c2.8799-0.1799,5.76-0.5199,8.6399-0.88
	l0.3101-0.25c7.6599-0.5499,15.24-1.84,22.8201-3.0699c4.27-0.15,8.6899-0.4301,12.6799-2.08l0.15-0.03
	c3.4-0.1,6.7899-0.67,9.97-1.92c6.84-1.38,13.5399-3.36,20.2201-5.38c5.8799-1.89,11.9399-3.6799,17.0999-7.1699
	c4.0601-1.54,3.78-6.24,2.42-9.5801c-0.0199-2.75-2.72-3.75-4.71-4.8999c-0.89-6.9-3.1-13.8101-8.4401-18.5701
	c0.3401-0.09,1.02-0.28,1.3601-0.37c3.75-0.14,7.51-0.71,11.0599-1.99c4.7101-0.97,9.8099-1.26,13.9501-3.9401
	c1.6099-0.5199,1.3599-4.5699-0.4301-4.6799c0.61-2.61-1.4-4.09-3.59-4.6901c-1.05-6.46-1.1001-13.8199-6.03-18.75
	c-3.97-4.97-10.6101-5.8999-16.38-7.35c-7.39-1.4-14.67-3.5399-22.16-4.28c0.3-1.8799-2.8999-2.1499-3.71-0.7999l-1.3-0.1801
	c0.28-1.9099-2.9199-2.22-3.6899-0.7899l-0.72-0.2001c-4.4701-1.63-9.2001-2.3199-13.8601-3.1599
	c-5.3699-1.7101-10.4099-4.41-16.01-5.3501c-3.8199-0.7-7.2-2.6699-10.4399-4.71c-0.91-3.39-4.8-4.1801-7.28-6.09
	c-0.63-0.92-0.13-3.65-1.9299-2.8401c-0.3701-1.7699-3.48-1.9099-4.9501-1.5699c-2.46-2.03-5.6-3.0699-8.0699-5.09
	c-0.3701-2.55-2.38-3.85-4.8401-3.0801c-3.9399-2.49-8.03-4.6899-12.0599-6.99c-0.66-2.35-2.66-3.1599-4.91-2.48
	c-0.5-0.1799-1.51-0.52-2.02-0.6899c0.74-1.65-1.74-3.8301-3.22-2.7201c-1.59-1.6899-3.46-3.0699-5.1799-4.59
	c-0.72-3.26-1.1901-6.5699-1.8901-9.8099c-1.0299-3-3.0199-5.55-4.5898-8.26c4.33-2.1801,10.7899-3.38,11.8099-8.99
	c-0.4601-8.9601-3.9401-17.54-8.61-25.1001c-1.9399-3.36-2.5601-7.24-3.88-10.83c1.24-1.9,1.3199-4.72,0.2799-6.6801
	c0.1201-0.3999,0.3401-1.2,0.4501-1.6c1.2101-3.51,2.37-7.87-0.0399-11.12c-0.75-2.0599-1.6702-4.0399-2.4301-6.0599
	c-2.02-8.0701,1.63-16.0901,0.9401-24.1901c0.3799-13.98-0.1802-27.97,0.3198-41.9399c1.0601-7.37,1.2101-14.85,0.9202-22.28
	c-0.24-6.11,1.46-12.1,1.1099-18.2c1.29-7.91,3.2001-15.7001,4.9301-23.52c1.12-2.4301,1.67-5.0601,1.86-7.7101
	c3.0901-12.1,5.67-24.4299,7.1101-36.8099c1.97-0.13,2.0099-3.61,0.7699-4.7l0.17-1.3301c2.03-0.03,2.12-3.53,0.86-4.63
	l0.1801-0.6699c1.5699-3.0701,2.1599-6.51,2.08-9.92c2.95-12.3201,8.72-23.98,9.9301-36.6901
	c1.7799,0.13,2.0699-2.9299,0.8199-3.7699c1.15-3.13,1.58-6.4601,2.1801-9.7101c1.46-3.39,1.9099-7.0699,2.1399-10.71
	c2-11.8101,6.95-22.78,9.88-34.33c1.75-3.7301,2.54-7.8,3.0599-11.8401c2.1001-8.11,4.2301-16.3099,4.9102-24.6599
	c1.95-0.1901,1.98-3.64,0.77-4.77l0.25-1.4c2.0798-0.88,1.8298-4.79,0.75-6.52c0.0898-0.84,0.2799-2.52,0.3699-3.36
	c1.92-1.01,1.6801-4.86,0.6001-6.61c0.08-0.47,0.23-1.4,0.3099-1.86l0.62,0.01c0.5601-9.29,0.73-18.6001,1.1799-27.89
	c1.0701-6.1901,2.3801-12.3201,3.8401-18.42c0.7-3,1.62-6.03,1.4099-9.13c1.77,0.14,1.9301-2.9199,0.76-3.77L705,1245.28
	c1.4399-4.28,0.96-8.8401,1.02-13.26c-0.05-5.4301,0.28-10.96-0.99-16.28c-0.04-0.3199-0.1201-0.95-0.15-1.26
	c0.2101-3.2999,0.23-6.6699-0.9501-9.79c-0.0898-0.4299-0.2899-1.2899-0.3799-1.72c1.27-0.7999,1.23-3.99-0.6201-3.76
	c0.02-4.39-1.52-8.5699-2.5599-12.77c-0.92-3.4099-0.5699-6.97-0.5699-10.4399c0.1399-7.92-0.1901-15.84,0.1099-23.76
	c1.0801-5.47,1.3501-11.24,0.7201-16.79c0.7799-14.61,0.8099-29.26-0.01-43.87c0.64-4.9399,0.2999-10.0299-0.73-14.88
	c-0.0699-3.0299,0.0399-6.0499-0.24-9.0499c0.1801-1.9,0.16-3.79-0.12-5.64c-0.97-5.96-0.21-12.01-0.8-17.99
	c-0.5601-6.13,0.45-12.5701-1.75-18.42c-0.09-0.2899-0.27-0.87-0.36-1.15c-0.33-2.73-0.7799-5.46-1.7001-8.04
	c-0.0299-0.24-0.0898-0.71-0.1199-0.94c0.28-3.59,0.3599-7.29-0.9301-10.7c-2.2001-5.23-3.15-10.83-4.0699-16.4
	c-0.53-5.98,1.25-12.33-0.8-18.06c-1.13-5.54-3.9-10.61-4.6899-16.24c-1.1201-4.65-1.1901-9.89-4.0601-13.87
	c-0.04-0.6-0.14-1.81-0.1899-2.41c6.1199,3.48,12.8199,5.8,18.9299,9.25c3.2,3.53,5.3201,7.86,7.89,11.84
	c0.5299-0.44,1.58-1.33,2.11-1.77l-0.1599-0.56c-1.04-4.9-0.0901-10.15-1.8501-14.86c-1.38-5.13-3.5601-10.04-4.6499-15.25
	c-1.4401-6.66-2.3901-13.43-4.5901-19.9c0.65-6.19-1.8201-12.31-0.51-18.47c0.64-3.17,1.1899-6.42,0.49-9.62l0.0701-0.79
	c2.0599,0.08,2.1699-3.47,0.8-4.49l0.1899-0.74c1.95-5.7,2.51-12.3,0.09-17.95c-0.0299-0.21-0.09-0.63-0.13-0.85
	c0.02-4.01,0.6699-8.26-0.84-12.08c-0.67-5.56-2.92-10.74-4.1801-16.16c6.39,5.7,12,12.22,18.16,18.16c0.62,2.8,2.76,4.88,5.49,5.69
	c7.13,7.87,14.36,16.07,18.25,26.1c1.4401,3.19,2.35,6.67,4.4,9.5699c3.11,3.9901,7.6599,6.41,11.3899,9.75
	c4.9501,4.42,9.8101,9.1201,15.8201,12.11c8.39,4.19,16.62,8.72,24.75,13.4c7.78,4.98,14.76,11.08,21.66,17.19
	c3.7001,3.25,6.84,7.34,11.41,9.47c3.53,1.38,7.45,1.07,11.1,0.34c2.58-0.76,4.5199,2.01,7.1,1.85
	c-0.37,1.81,3.8101,1.8,3.5601-0.01l1.2899-0.37c1.1,1.16,4.55,1.2,4.66-0.75c4.3301,0.1,8.46-1.5,12.4399-3.04
	c3.25,2.15,6.65,4.59,10.75,4.56c4.1001-0.24,8.16-1.74,11.3301-4.3799c4.59-0.01,8.12,4.56,12.85,3.59
	c1.08,1.24,4.5599,1.18,4.63-0.79c5.45-0.1,10.4199-3.83,12.11-9.01c3.24,4.2,7.15,8.62,12.38,10.15c0.14,1.84,4.47,1.91,4.64,0.07
	c4.91-0.96,8.85-6.08,7.88-11.14c-0.1899-5.56-4.45-9.63-6-14.7401c2.97,1.94,5.88,4.41,9.5601,4.8c0.48,1.98,4.8799,1.92,5.51,0.05
	c5.9099-1.35,9.49-8.21,7.5599-13.91c-1.01-4.66-5.65-7-7.67-11.09c4.03-3.4,8.46-6.33,13.3301-8.38
	c1.26,1.14,3.59,1.03,4.8199-0.14l0.8099,0.31c2.6301,1.29,5.6201,1.17,8.49,1.3v-0.91c9.0701-1.81,17.4301-6.58,24.1201-12.92
	c7.6-7.4,17.28-12.67,27.6899-14.8c15.39-4.6,31.4301-6.41,46.97-10.4c21.91-4.83,42.92-12.86,64.0901-20.17
	c19.4099-7.36,38.5199-15.54,57.2699-24.46c2.0801,5.14,0.27,10.75,1.05,16.1c-0.45,6.51-1.76,12.93-2.98,19.34
	c-0.63,2.8,0.98,5.38,1.87,7.94c-2.7,13.6-7.88,26.73-9.11,40.6c-2.3,0.62-1.9,4.59-0.77,6.26l-0.2,0.95
	c-1.3301,3.8-1.4401,7.89-0.89,11.86c-0.03,0.27-0.0701,0.79-0.1001,1.06c-1.0199,2.8-1.2699,5.79-1.24,8.77
	c-4.22,16.08-11.99,30.92-17.0599,46.72c-6.88,17.42-11.99,35.47-16.63,53.59c-1.5,3.05-1.97,6.4399-2.16,9.8
	c-1.7999,8.24-4.46,16.3899-4.9299,24.85c-2.02,0-2.0701,3.52-0.8,4.63l-0.17,1.27c-1.84-0.2101-2.1899,2.8899-0.8199,3.75
	c-0.8,2.0499-1.2,4.25-1.21,6.47c-2.1901,0.26-2.01,4.11-0.7301,5.46c-0.0599,0.59-0.1899,1.76-0.2599,2.34
	c-2.0801,0.53-1.9901,4.25-0.7401,5.7101c-0.08,0.4199-0.22,1.24-0.2999,1.6599c-1.54,6.0801-1.64,12.4601-2.02,18.7001
	c-0.9,4.85-1.67,9.72-2.15,14.63c4.54,1.88,9.2101,4.12,14.25,3.96c-0.24,1.8,2.88,2.02,3.72,0.75
	c0.3701,0.11,1.1101,0.34,1.4801,0.4501c3.0499,1.1799,6.39,0.75,9.61,0.83l0.1899-0.7001l0.2101-1.7899
	c0.9099,3.9,0.1399,8.0499,1.59,11.84c0.01,1.08,0.0699,2.16,0.1899,3.27c-0.4299,5.53-0.26,11.16,0.8401,16.62
	c0.0299,0.3199,0.09,0.95,0.11,1.27c-0.2001,4.26-0.29,8.62,0.7999,12.7999c0.1001,0.49,0.3101,1.4701,0.42,1.9601
	c-0.95,1.74-1.52,5.61,0.64,6.47c0.09,0.91,0.27,2.72,0.37,3.63c-1.08,1.71-1.49,5.59,0.72,6.4l0.27,1.4299
	c-1.21,1.0901-1.24,4.54,0.71,4.6801c0.01,5.37,1.24,10.66,2.04,15.96c0.09,4.26,0.52,8.61,2.0699,12.63l0.1801,0.74
	c-1.37,1.0601-1.24,4.62,0.86,4.5601l0.21,1.38c-1.38,0.75-1.2,3.9199,0.66,3.76c0.08,0.5599,0.23,1.6699,0.3101,2.22
	c-1.38,0.79-1.13,4.02,0.7699,3.74l0.2101,1.35c-1.22,1.15-1.22,4.59,0.74,4.8201c0.0599,0.5599,0.1899,1.6699,0.25,2.23
	c-1.23,1.36-1.39,5.1599,0.79,5.51l0.2,1.47c-1.16,1.38-1.35,5.13,0.74,5.5499c0.0601,0.63,0.1901,1.88,0.25,2.51
	c-1.01,1.7001-1.48,5.65,0.6801,6.42c-0.0701,1.4-0.03,2.8101,0.11,4.24c-0.41,6.33,0.5,12.64,0.5699,18.98
	c0.96,9.4-0.4,18.86,0.6,28.27c0.2201,9.63,1.77,19.25,0.7101,28.89c0.26,7.0601-0.9,14.48,2.0299,21.1801
	c1.01,5.0199,2.0601,10.08,4.2301,14.7699c2.11,4.4401,2.6799,9.3501,3.5,14.15c0.9299,6.0801,2.76,11.99,4.6499,17.84
	c1.6101,5.3,5.74,9.5701,5.9801,15.3301c-1.14,1.64-1.55,5.5599,0.6399,6.34c0.03,0.75,0.1001,2.26,0.14,3.02
	c-0.23,2.88-0.2799,5.86,0.79,8.62c0.03,0.33,0.09,0.97,0.12,1.3c-0.47,5.5,0.78,10.95,0.86,16.45
	c-0.11,10.33,1.51,20.63,1.03,30.97c-0.13,13.65,0.71,27.29,1.0699,40.9401c-0.1899,6.77-0.0199,13.6,0.9801,20.3099
	c0.0399,2.39,0.11,4.8,0.33,7.2101c-0.72,4.8199-0.3201,9.71-0.28,14.5699c0.1,4.21-0.4,8.46,0.23,12.67l0.11-0.8501
	c-0.2699,6.62-0.6599,13.25-0.6799,19.89c-0.92,4.23-1.12,8.64-0.35,12.9301c-0.25,3.7-0.1801,7.42-0.3401,11.14
	c-1.25,6.47-0.9299,13.08-1.23,19.63c-0.5599,5.24-1.12,10.5-0.72,15.7899c-0.1901,1.3401-0.23,2.7001-0.11,4.1001
	c-2.05,0.4199-1.74,4.11-0.6,5.5c-0.0901,0.8999-0.29,2.7-0.38,3.6c-2.14,0.78-1.6801,4.66-0.6801,6.4
	c-0.0699,0.62-0.2,1.85-0.26,2.47c-2.1,0.45-1.85,4.13-0.72,5.59c-0.0699,0.64-0.22,1.92-0.29,2.5601
	c-2.1699,0.75-1.76,4.6799-0.6599,6.38c-0.4501,1.6799-0.8401,3.4199-1.3101,5.13c-0.62-1.2001-1.91-1.6801-2.96-2.29
	c0,3.5599-3,6.24-2.9701,9.72c-1.4399,0.85-1.7999,3.15-2.98,4.46l0.13,0.39l-0.75,0.2201
	c-1.7999,5.7999-2.3099,12.2799-5.6799,17.5299c-3.75,2.3-6.3201,5.98-7.54,10.1801c-0.67,3.85-6.48,2.89-7.25,6.37
	c-1.36-0.52-3.2,1.14-3.12,2.54c-1.5699,1.6699-2.8,3.9199-5.11,4.6499c-1.54,0.6901-3.38,1.02-4.53,2.3501
	c-2.87,1.49-5.9399,3.1699-7.35,6.25c-6.02,3.1-12.48,5.7899-16.98,11.1l-0.7101-0.59l-1.0399,0.2599l-0.29,0.8401
	c-3.04,0.27-5.9299,1.84-8.41,3.59c-2.58,2.26-5.96,3.16-9.1,4.33c-3.63,1.28-7.96,0.9-10.79,3.9301
	c-6.8099,4.3099-14.71,6.49-22.0499,9.74c-11.9,3.91-24.37,6.22-35.86,11.33c-4.9401,1.9301-8.0601,7.2001-7.7001,12.4501
	c-1.7799-0.26-1.9299,2.7899-0.71,3.61c-1.49,1.8099-0.88,4.2-0.86,6.35c3.15,1.13,6.34,2.41,9.74,2.5601
	c0.0699,2.01,3.5601,2.09,4.6801,0.7899l1.48,0.2101c0.7799,2.1799,4.72,1.99,6.4099,0.75c0.8601,0.13,2.5901,0.38,3.4501,0.5
	l-0.8301,0.01c6.76,1.48,13.75,0.59,20.5801,1.61c10.63,0.35,21.27,2.2,31.9,0.8199c6.1499-0.76,12.47-0.04,18.5199-1.61
	c0.41-0.08,1.2401-0.24,1.65-0.3101c1.4,1.1901,5.1901,1.3501,5.6-0.7599c2.52-0.01,5.01-0.51,7.4401-1.2001
	c1.0599,1.3201,4.5699,1.1801,4.59-0.84l1.4501-0.2001c1.35,1.26,5.12,1.37,5.5199-0.75l0.8501-0.0499
	c3.24,0.33,6.5599,0.1899,9.7-0.78c0.53-0.05,1.58-0.14,2.1-0.1899c4.23,0.35,8.4601-0.2201,12.7001-0.2001
	c4.49-0.08,8.96,0.48,13.45,0.24c0.29,0.03,0.86,0.0901,1.14,0.12c4.2,1.13,8.6,1.1001,12.92,0.8501
	c0.5399,0.0399,1.61,0.12,2.1399,0.1699c5.5,1.0601,11.1801,1.12,16.76,0.8c1.05,0.0699,2.12,0.14,3.2101,0.2
	c4.1699,1.85,8.88,0.75,13.2999,1.03c4.8-0.29,9.89,0.84,14.4601-1.05c0.4299-0.09,1.2699-0.2799,1.6899-0.38
	c1.86,0.99,5.51,1.2201,6.74-0.58l1.22,0.16l1.02-0.49c1.17,1.0299,4.48,1,4.6901-0.8501c1.38,0.04,4.1599-0.1499,4.02-2.09
	c1.86,0.27,2.1-2.95,0.75-3.7c1.0199-2.24-0.1901-4.65,0.38-6.92c2.4399-9.37,4.21-19.03,3.8899-28.74
	c0.1101-2.91,0.03-5.8099-0.13-8.7l-0.74,0.1c-0.1799-2.52-0.4199-5.02-1-7.4501c-0.3999-4.71-1.3099-9.37-3.0499-13.7599
	c-0.12-1.2401-1.09-2.0701-2.01-2.6901c0.13-3.1801,0.21-6.37-0.24-9.5c0.51-3.3,0.25-6.79,1.89-9.79
	c1.87-3.12-0.48-6.49-0.9601-9.6499c1.27-1.16,1.2001-4.64-0.84-4.7001c-0.03-0.4399-0.1-1.34-0.14-1.78
	c0.61-2.88,2.26-5.9299,0.76-8.7799c-0.65-0.13-1.9399-0.37-2.58-0.5c-1.4501-4.0801-0.65-8.4501-0.92-12.65
	c0.14-1.3301,0.1801-2.64,0.12-3.9301c2.17-0.76,1.63-4.71,0.63-6.38c0.0701-0.64,0.2001-1.9299,0.27-2.5699
	c2.11-0.85,1.8199-4.73,0.72-6.42c1.63-7.4299,2.47-15.01,4.0801-22.4399c5.0299-23.61,11.1599-46.97,16.0399-70.61
	c2.24-10.4301,3.92-21.01,7.23-31.17c2.8-9.6801,6.6101-19.21,7.88-29.23c1.99-0.0601,2-3.5601,0.79-4.65
	c0.73-2.39,1.05-4.85,1.39-7.3c12.97,14.77,25.6799,29.77,39.01,44.2201c12.5699,13.51,23.98,28.02,35.34,42.5399
	c11.64,14.5701,22.89,29.4401,33.92,44.4701c9.9199,13.0599,18.0599,27.33,27.14,40.96c-0.67,0.58-1.3101,1.2-1.9301,1.85
	c0.26,1.86,0.49,3.72,0.76,5.63l0.71-0.16c0.3301,2.1001,1.4301,3.9701,2.4401,5.8401c-1.9401-0.2101-3.9601,3.9099-1.59,4.2899
	c1.35,2.4601,1.62,5.4601,3.5599,7.63c-1.16,1.37-0.91,2.28,0.75,2.7201c-0.23,5.8199-1.62,12.23-6.02,16.3799
	c-4.9299,3.8701-5.33,10.8101-9.5699,15.3c-3.55,3-3.73,8.01-6.5601,11.54c-1.72,3.1599-5.01,5.22-6.1699,8.71
	c-1.49,3.85-3.77,7.39-6.5701,10.42c-4.73,4.25-7.02,10.88-12.91,13.89c-1.6499,0.97-3.09,2.2699-3.7599,4.13
	c-5.0601,3.98-11.77,4.61-17.04,8.22c-10.05,4.11-20.61,6.99-30.55,11.39c-5.02,2.26-10.8199,5.87-10.88,12.0699l-0.84-0.1
	c0.01,3.76-0.64,7.48-1.03,11.22c-0.33,1.29,0.2001,2.53,1.28,3.34c0.77-0.0399,2.3199-0.13,3.09-0.1699
	c3.01,1.08,6.25,0.89,9.41,0.9c4.0699-0.0701,8.24,0.1799,12.22-0.9401c1.8-0.03,3.62-0.16,5.4601-0.27
	c13.7599,0.6901,27.48-1.6699,41.25-0.95c3.7999-0.0701,7.74,0.51,11.4399-0.64c0.42-0.14,1.26-0.4301,1.6801-0.5699
	c1.1699,0.96,4.45,1.11,4.72-0.7101l1.08,0.1901c2.55-0.76,5.14-1.42,7.64-2.3401c3.24-0.5299,6.89-1.08,9.05-3.85
	c11.1499-7.3099,22.0699-14.99,33.4399-21.97c13.14-7.7,26.3-15.42,40.0701-21.97c14.0299-6.0801,27.9299-12.5,41.5399-19.5
	c5.5-3.1901,12.0801-5.67,15.27-11.5801C1583.26,1772.14,1581.84,1768.6,1580.36,1765.1z M1405.03,301
	c-2.89-4.6899-2.27-10.41-3.75-15.54c0.72-2.73,1.4099-5.49,2.52-8.11c-0.1001,2.4-0.1901,4.79-0.3501,7.1801
	c-0.4099,2.48-0.6899,4.97-0.63,7.48c0.6901-1.64,1.3201-3.3101,1.9401-4.99C1406.6,291.51,1407.17,296.49,1405.03,301z
	 M1414.01,298.36c-0.97-1.2101-1.91-2.42-2.78-3.6801c-2.16-3.97-3.14-8.4399-3.8099-12.8699
	c-0.12-2.0601-0.0701-4.1201,0.01-6.1801c0.5499,1.0699,1.0599,2.15,1.6399,3.24c2.3301,5.09,4.4701,10.35,5.2401,15.9401
	C1414.23,295.7,1414.08,297.47,1414.01,298.36z M795.97,853.01c-3.3999-5.12-5.96-10.76-9.3799-15.88
	c1.5999,0.84,3.1499,1.82,4.5099,3.05c4.1901,4.22,8.38,8.46,12.42,12.83C801.25,854.51,797.9199,855.67,795.97,853.01z
	 M1171.87,246.88c0.38-0.09,1.15-0.27,1.53-0.37l0.38,0.62c-0.4301,0.13-1.29,0.38-1.72,0.51L1171.87,246.88z"/>
</svg>
